<mxfile host="app.diagrams.net" modified="2023-04-06T15:49:46.774Z" agent="Mozilla/5.0 (Windows NT 10.0; Win64; x64) AppleWebKit/537.36 (KHTML, like Gecko) Chrome/112.0.0.0 Safari/537.36" etag="ZroKFQ6wxV3z1NTwW06A" version="21.1.4" type="device">
  <diagram name="Страница 1" id="tKlFdhe6DmPF9fYMz_AW">
    <mxGraphModel dx="989" dy="556" grid="1" gridSize="10" guides="1" tooltips="1" connect="1" arrows="1" fold="1" page="1" pageScale="1" pageWidth="827" pageHeight="1169" math="0" shadow="0">
      <root>
        <mxCell id="0" />
        <mxCell id="1" parent="0" />
        <mxCell id="Rgx7Lz2elLKNHia8VYeP-5" value="" style="edgeStyle=orthogonalEdgeStyle;rounded=0;orthogonalLoop=1;jettySize=auto;html=1;" edge="1" parent="1" source="Rgx7Lz2elLKNHia8VYeP-1" target="Rgx7Lz2elLKNHia8VYeP-4">
          <mxGeometry relative="1" as="geometry" />
        </mxCell>
        <mxCell id="Rgx7Lz2elLKNHia8VYeP-1" value="Start" style="ellipse;whiteSpace=wrap;html=1;" vertex="1" parent="1">
          <mxGeometry x="340" y="113" width="80" height="50" as="geometry" />
        </mxCell>
        <mxCell id="Rgx7Lz2elLKNHia8VYeP-10" value="" style="edgeStyle=orthogonalEdgeStyle;rounded=0;orthogonalLoop=1;jettySize=auto;html=1;" edge="1" parent="1" source="Rgx7Lz2elLKNHia8VYeP-4" target="Rgx7Lz2elLKNHia8VYeP-9">
          <mxGeometry relative="1" as="geometry" />
        </mxCell>
        <mxCell id="Rgx7Lz2elLKNHia8VYeP-4" value="array = A&lt;br&gt;" style="whiteSpace=wrap;html=1;" vertex="1" parent="1">
          <mxGeometry x="320" y="203" width="120" height="40" as="geometry" />
        </mxCell>
        <mxCell id="Rgx7Lz2elLKNHia8VYeP-12" value="" style="edgeStyle=orthogonalEdgeStyle;rounded=0;orthogonalLoop=1;jettySize=auto;html=1;" edge="1" parent="1" source="Rgx7Lz2elLKNHia8VYeP-9" target="Rgx7Lz2elLKNHia8VYeP-11">
          <mxGeometry relative="1" as="geometry" />
        </mxCell>
        <mxCell id="Rgx7Lz2elLKNHia8VYeP-9" value="int i = 0" style="whiteSpace=wrap;html=1;" vertex="1" parent="1">
          <mxGeometry x="320" y="273" width="120" height="30" as="geometry" />
        </mxCell>
        <mxCell id="Rgx7Lz2elLKNHia8VYeP-17" style="edgeStyle=orthogonalEdgeStyle;rounded=0;orthogonalLoop=1;jettySize=auto;html=1;exitX=0.5;exitY=1;exitDx=0;exitDy=0;entryX=0.5;entryY=0;entryDx=0;entryDy=0;" edge="1" parent="1" source="Rgx7Lz2elLKNHia8VYeP-11" target="Rgx7Lz2elLKNHia8VYeP-14">
          <mxGeometry relative="1" as="geometry" />
        </mxCell>
        <mxCell id="Rgx7Lz2elLKNHia8VYeP-20" value="" style="edgeStyle=orthogonalEdgeStyle;rounded=0;orthogonalLoop=1;jettySize=auto;html=1;entryX=0.5;entryY=0;entryDx=0;entryDy=0;" edge="1" parent="1" source="Rgx7Lz2elLKNHia8VYeP-11" target="Rgx7Lz2elLKNHia8VYeP-23">
          <mxGeometry relative="1" as="geometry">
            <Array as="points">
              <mxPoint x="500" y="373" />
              <mxPoint x="500" y="513" />
              <mxPoint x="380" y="513" />
            </Array>
          </mxGeometry>
        </mxCell>
        <mxCell id="Rgx7Lz2elLKNHia8VYeP-11" value="i &amp;lt; array.length" style="rhombus;whiteSpace=wrap;html=1;" vertex="1" parent="1">
          <mxGeometry x="310" y="333" width="140" height="80" as="geometry" />
        </mxCell>
        <mxCell id="Rgx7Lz2elLKNHia8VYeP-18" style="edgeStyle=orthogonalEdgeStyle;rounded=0;orthogonalLoop=1;jettySize=auto;html=1;exitX=0;exitY=0.5;exitDx=0;exitDy=0;entryX=0;entryY=0.5;entryDx=0;entryDy=0;" edge="1" parent="1" source="Rgx7Lz2elLKNHia8VYeP-14" target="Rgx7Lz2elLKNHia8VYeP-11">
          <mxGeometry relative="1" as="geometry" />
        </mxCell>
        <mxCell id="Rgx7Lz2elLKNHia8VYeP-14" value="newArray[i] = &quot;&quot;&lt;br&gt;i++" style="whiteSpace=wrap;html=1;" vertex="1" parent="1">
          <mxGeometry x="320" y="453" width="120" height="50" as="geometry" />
        </mxCell>
        <mxCell id="Rgx7Lz2elLKNHia8VYeP-22" value="" style="edgeStyle=orthogonalEdgeStyle;rounded=0;orthogonalLoop=1;jettySize=auto;html=1;" edge="1" parent="1" source="Rgx7Lz2elLKNHia8VYeP-19" target="Rgx7Lz2elLKNHia8VYeP-21">
          <mxGeometry relative="1" as="geometry" />
        </mxCell>
        <mxCell id="Rgx7Lz2elLKNHia8VYeP-29" value="" style="edgeStyle=orthogonalEdgeStyle;rounded=0;orthogonalLoop=1;jettySize=auto;html=1;" edge="1" parent="1" source="Rgx7Lz2elLKNHia8VYeP-19" target="Rgx7Lz2elLKNHia8VYeP-28">
          <mxGeometry relative="1" as="geometry" />
        </mxCell>
        <mxCell id="Rgx7Lz2elLKNHia8VYeP-19" value="i &amp;lt; array.length" style="rhombus;whiteSpace=wrap;html=1;" vertex="1" parent="1">
          <mxGeometry x="320" y="623" width="120" height="80" as="geometry" />
        </mxCell>
        <mxCell id="Rgx7Lz2elLKNHia8VYeP-26" value="" style="edgeStyle=orthogonalEdgeStyle;rounded=0;orthogonalLoop=1;jettySize=auto;html=1;exitX=0;exitY=0.5;exitDx=0;exitDy=0;" edge="1" parent="1" source="Rgx7Lz2elLKNHia8VYeP-21" target="Rgx7Lz2elLKNHia8VYeP-25">
          <mxGeometry relative="1" as="geometry" />
        </mxCell>
        <mxCell id="Rgx7Lz2elLKNHia8VYeP-35" style="edgeStyle=orthogonalEdgeStyle;rounded=0;orthogonalLoop=1;jettySize=auto;html=1;exitX=1;exitY=0.5;exitDx=0;exitDy=0;entryX=0.5;entryY=0;entryDx=0;entryDy=0;" edge="1" parent="1" source="Rgx7Lz2elLKNHia8VYeP-21" target="Rgx7Lz2elLKNHia8VYeP-33">
          <mxGeometry relative="1" as="geometry">
            <Array as="points">
              <mxPoint x="475" y="783" />
              <mxPoint x="475" y="933" />
              <mxPoint x="390" y="933" />
            </Array>
          </mxGeometry>
        </mxCell>
        <mxCell id="Rgx7Lz2elLKNHia8VYeP-21" value="array[i].length &amp;lt;= 3" style="rhombus;whiteSpace=wrap;html=1;" vertex="1" parent="1">
          <mxGeometry x="305" y="743" width="150" height="80" as="geometry" />
        </mxCell>
        <mxCell id="Rgx7Lz2elLKNHia8VYeP-24" style="edgeStyle=orthogonalEdgeStyle;rounded=0;orthogonalLoop=1;jettySize=auto;html=1;exitX=0.5;exitY=1;exitDx=0;exitDy=0;entryX=0.5;entryY=0;entryDx=0;entryDy=0;" edge="1" parent="1" source="Rgx7Lz2elLKNHia8VYeP-23" target="Rgx7Lz2elLKNHia8VYeP-19">
          <mxGeometry relative="1" as="geometry" />
        </mxCell>
        <mxCell id="Rgx7Lz2elLKNHia8VYeP-23" value="i = 0&lt;br&gt;j = 0" style="rounded=0;whiteSpace=wrap;html=1;" vertex="1" parent="1">
          <mxGeometry x="320" y="557" width="120" height="36" as="geometry" />
        </mxCell>
        <mxCell id="Rgx7Lz2elLKNHia8VYeP-27" style="edgeStyle=orthogonalEdgeStyle;rounded=0;orthogonalLoop=1;jettySize=auto;html=1;exitX=0.5;exitY=1;exitDx=0;exitDy=0;entryX=0;entryY=0.5;entryDx=0;entryDy=0;" edge="1" parent="1" source="Rgx7Lz2elLKNHia8VYeP-33" target="Rgx7Lz2elLKNHia8VYeP-19">
          <mxGeometry relative="1" as="geometry">
            <Array as="points">
              <mxPoint x="390" y="1043" />
              <mxPoint x="200" y="1043" />
              <mxPoint x="200" y="663" />
            </Array>
          </mxGeometry>
        </mxCell>
        <mxCell id="Rgx7Lz2elLKNHia8VYeP-34" value="" style="edgeStyle=orthogonalEdgeStyle;rounded=0;orthogonalLoop=1;jettySize=auto;html=1;" edge="1" parent="1" source="Rgx7Lz2elLKNHia8VYeP-25" target="Rgx7Lz2elLKNHia8VYeP-33">
          <mxGeometry relative="1" as="geometry">
            <Array as="points">
              <mxPoint x="280" y="933" />
              <mxPoint x="390" y="933" />
            </Array>
          </mxGeometry>
        </mxCell>
        <mxCell id="Rgx7Lz2elLKNHia8VYeP-25" value="newArray[j] = array[i]&lt;br&gt;j++" style="whiteSpace=wrap;html=1;" vertex="1" parent="1">
          <mxGeometry x="220" y="833" width="120" height="50" as="geometry" />
        </mxCell>
        <mxCell id="Rgx7Lz2elLKNHia8VYeP-38" value="" style="edgeStyle=orthogonalEdgeStyle;rounded=0;orthogonalLoop=1;jettySize=auto;html=1;" edge="1" parent="1" source="Rgx7Lz2elLKNHia8VYeP-28" target="Rgx7Lz2elLKNHia8VYeP-37">
          <mxGeometry relative="1" as="geometry" />
        </mxCell>
        <mxCell id="Rgx7Lz2elLKNHia8VYeP-28" value="newArray.Resize (ref newArray, j)" style="whiteSpace=wrap;html=1;" vertex="1" parent="1">
          <mxGeometry x="510" y="743" width="190" height="60" as="geometry" />
        </mxCell>
        <mxCell id="Rgx7Lz2elLKNHia8VYeP-30" style="edgeStyle=orthogonalEdgeStyle;rounded=0;orthogonalLoop=1;jettySize=auto;html=1;exitX=0.5;exitY=1;exitDx=0;exitDy=0;" edge="1" parent="1" source="Rgx7Lz2elLKNHia8VYeP-25" target="Rgx7Lz2elLKNHia8VYeP-25">
          <mxGeometry relative="1" as="geometry" />
        </mxCell>
        <mxCell id="Rgx7Lz2elLKNHia8VYeP-33" value="i++" style="whiteSpace=wrap;html=1;" vertex="1" parent="1">
          <mxGeometry x="330" y="973" width="120" height="35" as="geometry" />
        </mxCell>
        <mxCell id="Rgx7Lz2elLKNHia8VYeP-40" value="" style="edgeStyle=orthogonalEdgeStyle;rounded=0;orthogonalLoop=1;jettySize=auto;html=1;" edge="1" parent="1" source="Rgx7Lz2elLKNHia8VYeP-37" target="Rgx7Lz2elLKNHia8VYeP-39">
          <mxGeometry relative="1" as="geometry" />
        </mxCell>
        <mxCell id="Rgx7Lz2elLKNHia8VYeP-37" value="return newArray" style="whiteSpace=wrap;html=1;" vertex="1" parent="1">
          <mxGeometry x="545" y="843" width="120" height="60" as="geometry" />
        </mxCell>
        <mxCell id="Rgx7Lz2elLKNHia8VYeP-39" value="End" style="ellipse;whiteSpace=wrap;html=1;" vertex="1" parent="1">
          <mxGeometry x="565" y="973" width="80" height="40" as="geometry" />
        </mxCell>
        <mxCell id="Rgx7Lz2elLKNHia8VYeP-41" value="&lt;font style=&quot;font-size: 16px;&quot;&gt;Метод создающий новый массив из слов не больше трех букв&lt;/font&gt;" style="text;html=1;strokeColor=none;fillColor=none;align=center;verticalAlign=middle;whiteSpace=wrap;rounded=0;" vertex="1" parent="1">
          <mxGeometry x="140" y="20" width="510" height="30" as="geometry" />
        </mxCell>
      </root>
    </mxGraphModel>
  </diagram>
</mxfile>
